<?xml version="1.0" encoding="UTF-8" standalone="no" ?>
<!DOCTYPE svg PUBLIC "-//W3C//DTD SVG 1.1//EN" "http://www.w3.org/Graphics/SVG/1.1/DTD/svg11.dtd">
<svg xmlns="http://www.w3.org/2000/svg" xmlns:xlink="http://www.w3.org/1999/xlink" version="1.1" width="1080" height="1080" viewBox="0 0 1080 1080" xml:space="preserve">
<desc>Created with Fabric.js 5.2.4</desc>
<defs>
</defs>
<rect x="0" y="0" width="100%" height="100%" fill="transparent"></rect>
<g transform="matrix(1 0 0 1 540 540)" id="c7c09c57-d260-4212-83d4-58d43e14acf4"  >
<rect style="stroke: none; stroke-width: 1; stroke-dasharray: none; stroke-linecap: butt; stroke-dashoffset: 0; stroke-linejoin: miter; stroke-miterlimit: 4; fill: rgb(255,255,255); fill-rule: nonzero; opacity: 1; visibility: hidden;" vector-effect="non-scaling-stroke"  x="-540" y="-540" rx="0" ry="0" width="1080" height="1080" />
</g>
<g transform="matrix(1 0 0 1 540 540)" id="33bddbce-3e2e-4641-b106-d3b2e5814543"  >
</g>
<g transform="matrix(0 0 0 0 0 0)"  >
<g style=""   >
</g>
</g>
<g transform="matrix(0 0 0 0 0 0)"  >
<g style=""   >
</g>
</g>
<g transform="matrix(0 0 0 0 0 0)"  >
<g style=""   >
</g>
</g>
<g transform="matrix(0 0 0 0 0 0)"  >
<g style=""   >
</g>
</g>
<g transform="matrix(31.79 0 0 31.79 540 555.62)" id="92de172f-8021-40a6-baee-2987b2a42bf3"  >
<path style="stroke: rgb(0,0,0); stroke-width: 0; stroke-dasharray: none; stroke-linecap: butt; stroke-dashoffset: 0; stroke-linejoin: miter; stroke-miterlimit: 4; fill: rgb(147,112,219); fill-rule: nonzero; opacity: 1;" vector-effect="non-scaling-stroke"  transform=" translate(-12, -12)" d="M 20.447 20.452 L 16.893 20.452 L 16.893 14.883000000000003 C 16.893 13.555000000000003 16.866 11.846000000000004 15.041 11.846000000000004 C 13.188 11.846000000000004 12.905000000000001 13.291000000000004 12.905000000000001 14.785000000000004 L 12.905000000000001 20.452000000000005 L 9.351 20.452000000000005 L 9.351 9 L 12.765 9 L 12.765 10.561 L 12.811 10.561 C 13.288 9.661 14.448 8.711 16.181 8.711 C 19.782 8.711 20.448 11.081 20.448 14.166 L 20.448 20.451999999999998 z M 5.337 7.433 C 4.193 7.433 3.2739999999999996 6.507 3.2739999999999996 5.368 C 3.2739999999999996 4.23 4.194 3.305 5.337 3.305 C 6.476999999999999 3.305 7.401 4.23 7.401 5.368 C 7.401 6.507000000000001 6.476 7.433 5.337 7.433 z M 7.119 20.451999999999998 L 3.555 20.451999999999998 L 3.555 9 L 7.119 9 L 7.119 20.451999999999998 z M 22.225 0 L 1.771 0 C 0.792 0 0 0.774 0 1.729 L 0 22.271 C 0 23.227 0.792 24 1.771 24 L 22.222 24 C 23.2 24 24 23.227 24 22.271 L 24 1.729 C 24 0.774 23.2 0 22.222 0 L 22.225 0 z" stroke-linecap="round" />
</g>
<g transform="matrix(NaN NaN NaN NaN 0 0)"  >
<g style=""   >
</g>
</g>
</svg>