<?xml version="1.0" encoding="UTF-8" standalone="no" ?>
<!DOCTYPE svg PUBLIC "-//W3C//DTD SVG 1.1//EN" "http://www.w3.org/Graphics/SVG/1.1/DTD/svg11.dtd">
<svg xmlns="http://www.w3.org/2000/svg" xmlns:xlink="http://www.w3.org/1999/xlink" version="1.1" width="1080" height="1080" viewBox="0 0 1080 1080" xml:space="preserve">
<desc>Created with Fabric.js 5.2.4</desc>
<defs>
</defs>
<rect x="0" y="0" width="100%" height="100%" fill="transparent"></rect>
<g transform="matrix(1 0 0 1 540 540)" id="33bddbce-3e2e-4641-b106-d3b2e5814543"  >
</g>
<g transform="matrix(1 0 0 1 540 540)" id="c7c09c57-d260-4212-83d4-58d43e14acf4"  >
<rect style="stroke: none; stroke-width: 1; stroke-dasharray: none; stroke-linecap: butt; stroke-dashoffset: 0; stroke-linejoin: miter; stroke-miterlimit: 4; fill: rgb(255,255,255); fill-rule: nonzero; opacity: 1; visibility: hidden;" vector-effect="non-scaling-stroke"  x="-540" y="-540" rx="0" ry="0" width="1080" height="1080" />
</g>
<g transform="matrix(0 0 0 0 0 0)"  >
<g style=""   >
</g>
</g>
<g transform="matrix(0 0 0 0 0 0)"  >
<g style=""   >
</g>
</g>
<g transform="matrix(0 0 0 0 0 0)"  >
<g style=""   >
</g>
</g>
<g transform="matrix(38.21 0 0 38.21 540 540)" id="0bf03658-45c5-40bd-94a4-c4e020088c33"  >
<path style="stroke: rgb(0,0,0); stroke-width: 0; stroke-dasharray: none; stroke-linecap: butt; stroke-dashoffset: 0; stroke-linejoin: miter; stroke-miterlimit: 4; fill: rgb(147,112,219); fill-rule: nonzero; opacity: 1;" vector-effect="non-scaling-stroke"  transform=" translate(-11.99, -11.99)" d="M 23.91 3.79 L 20.3 20.84 C 20.05 22.05 19.32 22.34 18.3 21.78 L 12.8 17.71 L 10.14 20.28 C 9.84 20.580000000000002 9.59 20.84 9.040000000000001 20.84 C 8.32 20.84 8.440000000000001 20.57 8.200000000000001 19.89 L 6.3 13.7 L 0.8499999999999996 12 C -0.3300000000000003 11.65 -0.3400000000000003 10.84 1.1099999999999997 10.25 L 22.37 2.0500000000000007 C 23.34 1.6200000000000008 24.27 2.290000000000001 23.900000000000002 3.7800000000000007 z" stroke-linecap="round" />
</g>
<g transform="matrix(NaN NaN NaN NaN 0 0)"  >
<g style=""   >
</g>
</g>
</svg>